<mxfile host="app.diagrams.net" agent="Mozilla/5.0 (X11; Ubuntu; Linux x86_64; rv:132.0) Gecko/20100101 Firefox/132.0" version="25.0.1">
  <diagram name="Page-1" id="PGIjsGxQ5W5Vop7BRV9V">
    <mxGraphModel dx="2074" dy="1182" grid="1" gridSize="10" guides="1" tooltips="1" connect="1" arrows="1" fold="1" page="1" pageScale="1" pageWidth="850" pageHeight="1100" math="0" shadow="0">
      <root>
        <mxCell id="0" />
        <mxCell id="1" parent="0" />
        <mxCell id="dATPyEmTPan65-h2QjHH-1" value="" style="rounded=1;whiteSpace=wrap;html=1;fillColor=#fa6800;strokeColor=#C73500;fontColor=#000000;" vertex="1" parent="1">
          <mxGeometry x="190" y="110" width="400" height="230" as="geometry" />
        </mxCell>
        <mxCell id="dATPyEmTPan65-h2QjHH-2" value="&lt;b&gt;NON-RT RIC&lt;/b&gt;" style="rounded=1;whiteSpace=wrap;html=1;fillColor=#f0a30a;fontColor=#000000;strokeColor=#BD7000;" vertex="1" parent="1">
          <mxGeometry x="340" y="300" width="100" height="40" as="geometry" />
        </mxCell>
        <mxCell id="dATPyEmTPan65-h2QjHH-5" style="edgeStyle=orthogonalEdgeStyle;rounded=0;orthogonalLoop=1;jettySize=auto;html=1;exitX=0.5;exitY=0;exitDx=0;exitDy=0;entryX=0.5;entryY=1;entryDx=0;entryDy=0;" edge="1" parent="1" source="dATPyEmTPan65-h2QjHH-3" target="dATPyEmTPan65-h2QjHH-2">
          <mxGeometry relative="1" as="geometry" />
        </mxCell>
        <mxCell id="dATPyEmTPan65-h2QjHH-6" value="A1" style="edgeLabel;html=1;align=center;verticalAlign=middle;resizable=0;points=[];" vertex="1" connectable="0" parent="dATPyEmTPan65-h2QjHH-5">
          <mxGeometry x="0.15" y="-1" relative="1" as="geometry">
            <mxPoint as="offset" />
          </mxGeometry>
        </mxCell>
        <mxCell id="dATPyEmTPan65-h2QjHH-3" value="&lt;b&gt;NEAR-RT RIC&lt;/b&gt;" style="rounded=1;whiteSpace=wrap;html=1;fillColor=#f0a30a;fontColor=#000000;strokeColor=#BD7000;" vertex="1" parent="1">
          <mxGeometry x="322.5" y="420" width="135" height="90" as="geometry" />
        </mxCell>
        <mxCell id="dATPyEmTPan65-h2QjHH-4" value="&lt;b&gt;xApp&lt;/b&gt;" style="rounded=1;whiteSpace=wrap;html=1;rotation=0;fillColor=#945900;" vertex="1" parent="1">
          <mxGeometry x="365" y="480" width="50" height="30" as="geometry" />
        </mxCell>
        <mxCell id="dATPyEmTPan65-h2QjHH-10" style="edgeStyle=orthogonalEdgeStyle;rounded=0;orthogonalLoop=1;jettySize=auto;html=1;exitX=0.5;exitY=0;exitDx=0;exitDy=0;entryX=0.75;entryY=1;entryDx=0;entryDy=0;" edge="1" parent="1" source="dATPyEmTPan65-h2QjHH-7" target="dATPyEmTPan65-h2QjHH-3">
          <mxGeometry relative="1" as="geometry" />
        </mxCell>
        <mxCell id="dATPyEmTPan65-h2QjHH-22" style="edgeStyle=orthogonalEdgeStyle;rounded=0;orthogonalLoop=1;jettySize=auto;html=1;exitX=0;exitY=0.5;exitDx=0;exitDy=0;entryX=1;entryY=0.5;entryDx=0;entryDy=0;" edge="1" parent="1" source="dATPyEmTPan65-h2QjHH-7" target="dATPyEmTPan65-h2QjHH-8">
          <mxGeometry relative="1" as="geometry" />
        </mxCell>
        <mxCell id="dATPyEmTPan65-h2QjHH-7" value="&lt;b&gt;CU&lt;/b&gt;" style="rounded=1;whiteSpace=wrap;html=1;fillColor=#FFCCFF;strokeColor=#9673a6;" vertex="1" parent="1">
          <mxGeometry x="425" y="630" width="120" height="60" as="geometry" />
        </mxCell>
        <mxCell id="dATPyEmTPan65-h2QjHH-11" style="edgeStyle=orthogonalEdgeStyle;rounded=0;orthogonalLoop=1;jettySize=auto;html=1;exitX=0.5;exitY=0;exitDx=0;exitDy=0;entryX=0.25;entryY=1;entryDx=0;entryDy=0;" edge="1" parent="1" source="dATPyEmTPan65-h2QjHH-8" target="dATPyEmTPan65-h2QjHH-3">
          <mxGeometry relative="1" as="geometry" />
        </mxCell>
        <mxCell id="dATPyEmTPan65-h2QjHH-23" style="edgeStyle=orthogonalEdgeStyle;rounded=0;orthogonalLoop=1;jettySize=auto;html=1;entryX=0.5;entryY=0;entryDx=0;entryDy=0;" edge="1" parent="1" source="dATPyEmTPan65-h2QjHH-8" target="dATPyEmTPan65-h2QjHH-19">
          <mxGeometry relative="1" as="geometry" />
        </mxCell>
        <mxCell id="dATPyEmTPan65-h2QjHH-8" value="&lt;b&gt;DU+RU&lt;/b&gt;" style="rounded=1;whiteSpace=wrap;html=1;fillColor=#FFCCFF;strokeColor=#9673a6;" vertex="1" parent="1">
          <mxGeometry x="230" y="630" width="120" height="60" as="geometry" />
        </mxCell>
        <mxCell id="dATPyEmTPan65-h2QjHH-14" style="edgeStyle=orthogonalEdgeStyle;rounded=0;orthogonalLoop=1;jettySize=auto;html=1;exitX=0.5;exitY=0;exitDx=0;exitDy=0;entryX=1;entryY=0.5;entryDx=0;entryDy=0;" edge="1" parent="1" source="dATPyEmTPan65-h2QjHH-9" target="dATPyEmTPan65-h2QjHH-1">
          <mxGeometry relative="1" as="geometry" />
        </mxCell>
        <mxCell id="dATPyEmTPan65-h2QjHH-21" style="edgeStyle=orthogonalEdgeStyle;rounded=0;orthogonalLoop=1;jettySize=auto;html=1;exitX=0;exitY=0.5;exitDx=0;exitDy=0;entryX=1;entryY=0.5;entryDx=0;entryDy=0;" edge="1" parent="1" source="dATPyEmTPan65-h2QjHH-9" target="dATPyEmTPan65-h2QjHH-7">
          <mxGeometry relative="1" as="geometry" />
        </mxCell>
        <mxCell id="dATPyEmTPan65-h2QjHH-9" value="&lt;b&gt;UPF&lt;/b&gt;" style="rounded=1;whiteSpace=wrap;html=1;fillColor=#d5e8d4;strokeColor=#82b366;" vertex="1" parent="1">
          <mxGeometry x="690" y="630" width="120" height="60" as="geometry" />
        </mxCell>
        <mxCell id="dATPyEmTPan65-h2QjHH-12" style="edgeStyle=orthogonalEdgeStyle;rounded=0;orthogonalLoop=1;jettySize=auto;html=1;exitX=0.25;exitY=0;exitDx=0;exitDy=0;entryX=0.173;entryY=0.967;entryDx=0;entryDy=0;entryPerimeter=0;" edge="1" parent="1" source="dATPyEmTPan65-h2QjHH-8" target="dATPyEmTPan65-h2QjHH-1">
          <mxGeometry relative="1" as="geometry" />
        </mxCell>
        <mxCell id="dATPyEmTPan65-h2QjHH-13" style="edgeStyle=orthogonalEdgeStyle;rounded=0;orthogonalLoop=1;jettySize=auto;html=1;exitX=0.75;exitY=0;exitDx=0;exitDy=0;entryX=0.813;entryY=1.025;entryDx=0;entryDy=0;entryPerimeter=0;" edge="1" parent="1" source="dATPyEmTPan65-h2QjHH-7" target="dATPyEmTPan65-h2QjHH-1">
          <mxGeometry relative="1" as="geometry" />
        </mxCell>
        <mxCell id="dATPyEmTPan65-h2QjHH-15" value="Scaphandre" style="ellipse;whiteSpace=wrap;html=1;aspect=fixed;fillColor=#dae8fc;strokeColor=#6c8ebf;" vertex="1" parent="1">
          <mxGeometry x="210" y="120" width="80" height="80" as="geometry" />
        </mxCell>
        <mxCell id="dATPyEmTPan65-h2QjHH-16" value="Power per pod" style="ellipse;whiteSpace=wrap;html=1;aspect=fixed;fillColor=#dae8fc;strokeColor=#6c8ebf;" vertex="1" parent="1">
          <mxGeometry x="340" y="120" width="80" height="80" as="geometry" />
        </mxCell>
        <mxCell id="dATPyEmTPan65-h2QjHH-17" value="Energy x packet" style="ellipse;whiteSpace=wrap;html=1;aspect=fixed;fillColor=#dae8fc;strokeColor=#6c8ebf;" vertex="1" parent="1">
          <mxGeometry x="470" y="120" width="80" height="80" as="geometry" />
        </mxCell>
        <mxCell id="dATPyEmTPan65-h2QjHH-18" value="&lt;b&gt;SMO&lt;/b&gt;" style="text;html=1;align=center;verticalAlign=middle;whiteSpace=wrap;rounded=0;" vertex="1" parent="1">
          <mxGeometry x="355" y="260" width="60" height="30" as="geometry" />
        </mxCell>
        <mxCell id="dATPyEmTPan65-h2QjHH-19" value="&lt;b&gt;UE&lt;/b&gt;" style="rounded=1;whiteSpace=wrap;html=1;fillColor=#f8cecc;strokeColor=#b85450;" vertex="1" parent="1">
          <mxGeometry x="230" y="790" width="120" height="60" as="geometry" />
        </mxCell>
      </root>
    </mxGraphModel>
  </diagram>
</mxfile>
